<svg width="35" height="36" viewBox="0 0 35 36" fill="none" xmlns="http://www.w3.org/2000/svg">
<path fill-rule="evenodd" clip-rule="evenodd" d="M4 31.5C7.39 30.53 14.11 31.93 17.5 29.5C20.89 31.93 27.61 30.53 31 31.5C31 31.5 32.65 32.04 34 33.5C33.32 34.47 32.35 34.49 31 34C27.61 33.03 20.89 34.46 17.5 33C14.11 34.46 7.39 33.03 4 34C2.646 34.49 1.677 34.47 1 33.5C2.354 31.56 4 31.5 4 31.5Z" fill="black" stroke="black" stroke-width="1.5" stroke-linejoin="round"/>
<path fill-rule="evenodd" clip-rule="evenodd" d="M10 27.5C12.5 30 22.5 30 25 27.5C25.5 26 25 25.5 25 25.5C25 23 22.5 21.5 22.5 21.5C28 20 28.5 10 17.5 6C6.50002 10 7.00002 20 12.5 21.5C12.5 21.5 10 23 10 25.5C10 25.5 9.50002 26 10 27.5Z" fill="black" stroke="black" stroke-width="1.5" stroke-linejoin="round"/>
<path fill-rule="evenodd" clip-rule="evenodd" d="M20 3.5C20 4.16304 19.7366 4.79893 19.2678 5.26777C18.7989 5.73661 18.163 6 17.5 6C16.837 6 16.2011 5.73661 15.7322 5.26777C15.2634 4.79893 15 4.16304 15 3.5C15 2.83696 15.2634 2.20107 15.7322 1.73223C16.2011 1.26339 16.837 1 17.5 1C18.163 1 18.7989 1.26339 19.2678 1.73223C19.7366 2.20107 20 2.83696 20 3.5Z" fill="black" stroke="black" stroke-width="1.5" stroke-linejoin="round"/>
<path d="M12.5 21.5H22.5M10 25.5H25M17.5 11V16M15 13.5H20" stroke="white" stroke-width="1.5" stroke-linecap="round"/>
</svg>
