<svg width="36" height="36" viewBox="0 0 36 36" fill="none" xmlns="http://www.w3.org/2000/svg">
<path d="M17.6731 6.63V1" stroke="black" stroke-width="1.5" stroke-linecap="round"/>
<path fill-rule="evenodd" clip-rule="evenodd" d="M17.6731 20C17.6731 20 22.1731 12.5 20.6731 9.5C20.6731 9.5 19.6731 7 17.6731 7C15.6731 7 14.6731 9.5 14.6731 9.5C13.1731 12.5 17.6731 20 17.6731 20Z" fill="black" stroke="black" stroke-width="1.5"/>
<path fill-rule="evenodd" clip-rule="evenodd" d="M6.67313 32.0001C12.1731 35.5001 22.1731 35.5001 27.6731 32.0001V25.0001C27.6731 25.0001 36.6731 20.5001 33.6731 14.5001C29.6731 8.00011 20.1731 11.0001 17.6731 18.5001C14.1731 11.0001 4.67313 8.00011 1.67313 14.5001C-1.32687 20.5001 6.67313 24.5001 6.67313 24.5001V32.0001Z" fill="black"/>
<path d="M17.6731 18.5001C20.1731 11.0001 29.6731 8.00011 33.6731 14.5001C36.6731 20.5001 27.6731 25.0001 27.6731 25.0001V32.0001C22.1731 35.5001 12.1731 35.5001 6.67313 32.0001V24.5001C6.67313 24.5001 -1.32687 20.5001 1.67313 14.5001C4.67313 8.00011 14.1731 11.0001 17.6731 18.5001ZM17.6731 18.5001V22.0001" stroke="black" stroke-width="1.5" stroke-linecap="round" stroke-linejoin="round"/>
<path d="M15.1731 3H20.1731" stroke="black" stroke-width="1.5" stroke-linecap="round"/>
<path d="M27.1731 24.4999C27.1731 24.4999 35.6731 20.4999 33.2031 14.8499C29.3231 8.99991 20.1731 12.9999 17.6731 19.4999M17.6731 19.4999L17.6831 21.5999M17.6731 19.4999C15.1731 12.9999 5.07911 8.99991 2.17011 14.8499C-0.326889 20.4999 7.02311 23.8499 7.02311 23.8499" stroke="white" stroke-width="1.5" stroke-linecap="round" stroke-linejoin="round"/>
<path d="M6.6731 25C12.1731 22 22.1731 22 27.6731 25M6.6731 28.5C12.1731 25.5 22.1731 25.5 27.6731 28.5M6.6731 32C12.1731 29 22.1731 29 27.6731 32" stroke="white" stroke-width="1.5" stroke-linecap="round" stroke-linejoin="round"/>
</svg>
