<svg width="39" height="36" viewBox="0 0 39 36" fill="none" xmlns="http://www.w3.org/2000/svg">
<path d="M2.75 9.5C4.26878 9.5 5.5 8.26878 5.5 6.75C5.5 5.23122 4.26878 4 2.75 4C1.23122 4 0 5.23122 0 6.75C0 8.26878 1.23122 9.5 2.75 9.5Z" fill="black"/>
<path d="M10.75 6.5C12.2688 6.5 13.5 5.26878 13.5 3.75C13.5 2.23122 12.2688 1 10.75 1C9.23122 1 8 2.23122 8 3.75C8 5.26878 9.23122 6.5 10.75 6.5Z" fill="black"/>
<path d="M19.25 5.5C20.7688 5.5 22 4.26878 22 2.75C22 1.23122 20.7688 0 19.25 0C17.7312 0 16.5 1.23122 16.5 2.75C16.5 4.26878 17.7312 5.5 19.25 5.5Z" fill="black"/>
<path d="M27.75 6.5C29.2688 6.5 30.5 5.26878 30.5 3.75C30.5 2.23122 29.2688 1 27.75 1C26.2312 1 25 2.23122 25 3.75C25 5.26878 26.2312 6.5 27.75 6.5Z" fill="black"/>
<path d="M35.75 9.5C37.2688 9.5 38.5 8.26878 38.5 6.75C38.5 5.23122 37.2688 4 35.75 4C34.2312 4 33 5.23122 33 6.75C33 8.26878 34.2312 9.5 35.75 9.5Z" fill="black"/>
<path fill-rule="evenodd" clip-rule="evenodd" d="M5.75 20.75C14.25 19.25 26.75 19.25 32.75 20.75L35.25 8.25L27.75 19.75L27.45 5.65L22.25 19.25L19.25 4.75L16.25 19.25L11.05 5.65L10.75 19.75L3.25 8.25L5.75 20.75Z" fill="black" stroke="black" stroke-width="1.5" stroke-linejoin="round"/>
<path fill-rule="evenodd" clip-rule="evenodd" d="M5.75 20.75C5.75 22.75 7.25 22.75 8.25 24.75C9.25 26.25 9.25 25.75 8.75 28.25C7.25 29.25 7.25 30.75 7.25 30.75C5.75 32.25 7.75 33.25 7.75 33.25C14.25 34.25 24.25 34.25 30.75 33.25C30.75 33.25 32.25 32.25 30.75 30.75C30.75 30.75 31.25 29.25 29.75 28.25C29.25 25.75 29.25 26.25 30.25 24.75C31.25 22.75 32.75 22.75 32.75 20.75C24.25 19.25 14.25 19.25 5.75 20.75Z" fill="black" stroke="black" stroke-width="1.5" stroke-linejoin="round"/>
<path d="M7.75 33.25C15.1978 35.841 23.3022 35.841 30.75 33.25" stroke="black" stroke-width="1.5" stroke-linejoin="round"/>
<path d="M7.75 23.7501C15.1978 21.1591 23.3022 21.1591 30.75 23.7501" stroke="white" stroke-width="1.5" stroke-linecap="round" stroke-linejoin="round"/>
<path d="M9.25 26.25H29.25" stroke="white" stroke-width="1.5" stroke-linecap="round" stroke-linejoin="round"/>
<path d="M8.25 29.25C15.3927 31.6147 23.1073 31.6147 30.25 29.25" stroke="white" stroke-width="1.5" stroke-linecap="round" stroke-linejoin="round"/>
<path d="M7.25 32.25C15 35.0786 23.5 35.0786 31.25 32.25" stroke="white" stroke-width="1.5" stroke-linecap="round" stroke-linejoin="round"/>
</svg>
