<svg width="39" height="36" viewBox="0 0 39 36" fill="none" xmlns="http://www.w3.org/2000/svg">
<path fill-rule="evenodd" clip-rule="evenodd" d="M5 7.5C5 8.03043 4.78929 8.53914 4.41421 8.91421C4.03914 9.28929 3.53043 9.5 3 9.5C2.46957 9.5 1.96086 9.28929 1.58579 8.91421C1.21071 8.53914 1 8.03043 1 7.5C1 6.96957 1.21071 6.46086 1.58579 6.08579C1.96086 5.71071 2.46957 5.5 3 5.5C3.53043 5.5 4.03914 5.71071 4.41421 6.08579C4.78929 6.46086 5 6.96957 5 7.5Z" fill="white" stroke="black" stroke-width="1.5" stroke-linecap="round" stroke-linejoin="round"/>
<path fill-rule="evenodd" clip-rule="evenodd" d="M21.5 3C21.5 3.53043 21.2893 4.03914 20.9142 4.41421C20.5391 4.78929 20.0304 5 19.5 5C18.9696 5 18.4609 4.78929 18.0858 4.41421C17.7107 4.03914 17.5 3.53043 17.5 3C17.5 2.46957 17.7107 1.96086 18.0858 1.58579C18.4609 1.21071 18.9696 1 19.5 1C20.0304 1 20.5391 1.21071 20.9142 1.58579C21.2893 1.96086 21.5 2.46957 21.5 3Z" fill="white" stroke="black" stroke-width="1.5" stroke-linecap="round" stroke-linejoin="round"/>
<path fill-rule="evenodd" clip-rule="evenodd" d="M38 7.5C38 8.03043 37.7893 8.53914 37.4142 8.91421C37.0391 9.28929 36.5304 9.5 36 9.5C35.4696 9.5 34.9609 9.28929 34.5858 8.91421C34.2107 8.53914 34 8.03043 34 7.5C34 6.96957 34.2107 6.46086 34.5858 6.08579C34.9609 5.71071 35.4696 5.5 36 5.5C36.5304 5.5 37.0391 5.71071 37.4142 6.08579C37.7893 6.46086 38 6.96957 38 7.5Z" fill="white" stroke="black" stroke-width="1.5" stroke-linecap="round" stroke-linejoin="round"/>
<path fill-rule="evenodd" clip-rule="evenodd" d="M13 4C13 4.53043 12.7893 5.03914 12.4142 5.41421C12.0391 5.78929 11.5304 6 11 6C10.4696 6 9.96086 5.78929 9.58579 5.41421C9.21071 5.03914 9 4.53043 9 4C9 3.46957 9.21071 2.96086 9.58579 2.58579C9.96086 2.21071 10.4696 2 11 2C11.5304 2 12.0391 2.21071 12.4142 2.58579C12.7893 2.96086 13 3.46957 13 4Z" fill="white" stroke="black" stroke-width="1.5" stroke-linecap="round" stroke-linejoin="round"/>
<path fill-rule="evenodd" clip-rule="evenodd" d="M30 4.5C30 5.03043 29.7893 5.53914 29.4142 5.91421C29.0391 6.28929 28.5304 6.5 28 6.5C27.4696 6.5 26.9609 6.28929 26.5858 5.91421C26.2107 5.53914 26 5.03043 26 4.5C26 3.96957 26.2107 3.46086 26.5858 3.08579C26.9609 2.71071 27.4696 2.5 28 2.5C28.5304 2.5 29.0391 2.71071 29.4142 3.08579C29.7893 3.46086 30 3.96957 30 4.5Z" fill="white" stroke="black" stroke-width="1.5" stroke-linecap="round" stroke-linejoin="round"/>
<path fill-rule="evenodd" clip-rule="evenodd" d="M6 21.5C14.5 20 27 20 33 21.5L35 9.5L28 20.5V6.5L22.5 20L19.5 5L16.5 20L11 6V20.5L4 9.5L6 21.5Z" fill="white" stroke="black" stroke-width="1.5" stroke-linejoin="round"/>
<path fill-rule="evenodd" clip-rule="evenodd" d="M6 21.5C6 23.5 7.5 23.5 8.5 25.5C9.5 27 9.5 26.5 9 29C7.5 30 7.5 31.5 7.5 31.5C6 33 8 34 8 34C14.5 35 24.5 35 31 34C31 34 32.5 33 31 31.5C31 31.5 31.5 30 30 29C29.5 26.5 29.5 27 30.5 25.5C31.5 23.5 33 23.5 33 21.5C24.5 20 14.5 20 6 21.5Z" fill="white" stroke="black" stroke-width="1.5" stroke-linejoin="round"/>
<path d="M8.5 25.5C12 24.5 27 24.5 30.5 25.5" stroke="black" stroke-width="1.5" stroke-linecap="round" stroke-linejoin="round"/>
<path d="M9 29C15 28 24 28 30 29" stroke="black" stroke-width="1.5" stroke-linecap="round" stroke-linejoin="round"/>
</svg>
