<svg width="40" height="50" viewBox="0 0 40 50" fill="none" xmlns="http://www.w3.org/2000/svg">
<path d="M20.0005 1.11033e-08C21.1403 -6.81685e-05 22.2542 0.313856 23.1989 0.90142C24.1436 1.48898 24.8758 2.32334 25.3016 3.29723C25.7274 4.27112 25.8272 5.34004 25.5882 6.36658C25.3493 7.39313 24.7824 8.3304 23.9605 9.05789C25.8063 9.79474 27.4635 10.6868 28.9321 11.7342L17.9804 21.8237L17.7433 22.0711C17.3171 22.5774 17.1062 23.2095 17.15 23.8489C17.1938 24.4883 17.4893 25.091 17.9812 25.544C18.473 25.9971 19.1274 26.2693 19.8216 26.3096C20.5158 26.3499 21.2022 26.1556 21.7519 25.7632L22.0205 25.5447L32.9179 15.5105C35.7094 19.0632 37.1437 23.5895 37.1437 28.9474C37.1437 33.9816 33.7779 38.7421 28.3178 39.4026L27.7463 39.4553L27.1435 39.4737H12.8574C6.78301 39.4737 2.85721 34.4105 2.85721 28.9474C2.85721 19.2632 7.34302 12.4868 16.0375 9.05263C15.2175 8.32466 14.6523 7.3876 14.4146 6.36171C14.1769 5.33582 14.2774 4.26791 14.7033 3.29502C15.1292 2.32213 15.861 1.48865 16.8049 0.901549C17.7487 0.314443 18.8615 0.000497177 20.0005 1.11033e-08ZM20.0005 7.89474V10.5263V7.89474ZM37.1437 42.1053H2.85721C2.09943 42.1053 1.37269 42.3825 0.836857 42.876C0.301027 43.3695 0 44.0389 0 44.7368C0 46.1327 0.602053 47.4714 1.67371 48.4585C2.74537 49.4455 4.19886 50 5.71442 50H34.2865C35.6875 50.0003 37.0398 49.5266 38.0865 48.6688C39.1332 47.8111 39.8012 46.629 39.9638 45.3474L39.9952 44.8895C40.0178 44.5317 39.9607 44.1735 39.8277 43.8367C39.6946 43.5 39.4882 43.1918 39.2212 42.9311C38.9542 42.6704 38.6322 42.4627 38.275 42.3207C37.9178 42.1787 37.5328 42.1054 37.1437 42.1053Z" fill="black"/>
</svg>
