<svg width="40" height="50" viewBox="0 0 40 50" fill="none" xmlns="http://www.w3.org/2000/svg">
<path d="M20 0C21.5804 0 22.8571 1.39648 22.8571 3.125V4.6875H24.2857C25.8661 4.6875 27.1429 6.08398 27.1429 7.8125C27.1429 9.54102 25.8661 10.9375 24.2857 10.9375H22.8571V15.625H36.4286C38.4018 15.625 40 17.373 40 19.5312C40 20.0488 39.9107 20.5566 39.7232 21.0352L32.8571 39.0625H7.14286L0.276786 21.0352C0.0892857 20.5566 0 20.0488 0 19.5312C0 17.373 1.59821 15.625 3.57143 15.625H17.1429V10.9375H15.7143C14.1339 10.9375 12.8571 9.54102 12.8571 7.8125C12.8571 6.08398 14.1339 4.6875 15.7143 4.6875H17.1429V3.125C17.1429 1.39648 18.4196 0 20 0ZM3.44643 46.2305L7.14286 42.1875H32.8571L36.5536 46.2305C36.9286 46.6406 37.1429 47.207 37.1429 47.793C37.1429 49.0137 36.2411 50 35.125 50H4.875C3.75893 50 2.85714 49.0137 2.85714 47.793C2.85714 47.207 3.07143 46.6406 3.44643 46.2305Z" fill="black"/>
</svg>
