<svg width="40" height="50" viewBox="0 0 40 50" fill="none" xmlns="http://www.w3.org/2000/svg">
<path d="M11.3117 0.0105187L10.8917 0.0841484L10.5631 0.160408C10.202 0.265874 9.86729 0.43638 9.57846 0.662004C9.28962 0.887628 9.05242 1.16387 8.88066 1.47464C8.7089 1.78542 8.606 2.12453 8.57797 2.47225C8.54993 2.81997 8.59731 3.16934 8.71734 3.50005L10.8574 9.4036L2.81435 13.966C1.52407 14.6971 0.602095 15.8699 0.251146 17.2265C-0.0998026 18.5831 0.149012 20.0124 0.942878 21.2002L1.19717 21.5499C1.72774 22.2173 2.42183 22.7601 3.22309 23.1343C4.02435 23.5085 4.91019 23.7036 5.8087 23.7036L10.2745 23.701L5.66299 35.9919C5.51405 36.3881 5.47017 36.8112 5.53501 37.2262C5.59985 37.6411 5.77153 38.0357 6.03574 38.3772C6.29995 38.7186 6.64903 38.997 7.05387 39.1891C7.45871 39.3812 7.90758 39.4814 8.36305 39.4814H31.1093C31.8563 39.4816 32.5737 39.2125 33.1077 38.7318C33.6418 38.2511 33.9501 37.597 33.9665 36.9096L34.2865 23.7614C34.2865 13.6978 29.8435 5.67477 20.9433 2.81372L14.0889 0.631114L13.0174 0.312928L12.2803 0.118334L11.8946 0.0368151L11.606 0.00262976L11.4488 0L11.3117 0.0105187ZM37.1437 42.1111H2.85721C2.09943 42.1111 1.37269 42.3881 0.836857 42.8813C0.301027 43.3744 0 44.0433 0 44.7407C0 46.1356 0.602053 47.4733 1.67371 48.4596C2.74537 49.4459 4.19886 50 5.71442 50H34.2865C35.6875 50.0003 37.0398 49.5269 38.0865 48.6698C39.1332 47.8127 39.8012 46.6315 39.9638 45.3508L39.9952 44.8932C40.0178 44.5357 39.9608 44.1778 39.8277 43.8413C39.6946 43.5047 39.4882 43.1968 39.2212 42.9363C38.9542 42.6758 38.6322 42.4683 38.275 42.3263C37.9178 42.1844 37.5328 42.1112 37.1437 42.1111Z" fill="black"/>
</svg>
