<svg width="40" height="50" viewBox="0 0 40 50" fill="none" xmlns="http://www.w3.org/2000/svg">
<path d="M0 50V37.5C3.66667 35 6.35417 32.3958 8.0625 29.6875C9.77083 26.9792 10.9375 24.5833 11.5625 22.5H5V17.5H10.625C10.0417 16.5833 9.58333 15.6042 9.25 14.5625C8.91667 13.5208 8.75 12.4167 8.75 11.25C8.75 8.125 9.84417 5.46917 12.0325 3.2825C14.2208 1.09583 16.8767 0.00166857 20 1.90114e-06C23.1233 -0.00166477 25.78 1.0925 27.97 3.2825C30.16 5.4725 31.2533 8.12834 31.25 11.25C31.25 12.4167 31.0833 13.5208 30.75 14.5625C30.4167 15.6042 29.9583 16.5833 29.375 17.5H35V22.5H28.4375C29.0625 24.5833 30.2292 26.9792 31.9375 29.6875C33.6458 32.3958 36.3333 35 40 37.5V50H0Z" fill="black"/>
</svg>
