<svg width="40" height="50" viewBox="0 0 40 50" fill="none" xmlns="http://www.w3.org/2000/svg">
<path d="M19.9957 0C20.9337 0.000175858 21.8527 0.278163 22.6478 0.802193C23.4428 1.32622 24.0818 2.07515 24.4916 2.96339C24.9015 3.85163 25.0657 4.84335 24.9656 5.8252C24.8654 6.80706 24.5049 7.73944 23.9252 8.51579L25.9074 13.7342L30.1618 9.25526C29.9652 8.47543 29.9412 7.65848 30.0917 6.86734C30.2422 6.07621 30.5633 5.33202 31.0301 4.6921C31.4969 4.05218 32.097 3.53363 32.7842 3.17639C33.4714 2.81915 34.2273 2.63276 34.9937 2.63158C36.1726 2.62985 37.3141 3.06677 38.2167 3.86516C39.1193 4.66354 39.7248 5.77204 39.9264 6.99485C40.1279 8.21767 39.9125 9.47614 39.3183 10.548C38.724 11.6198 37.789 12.4361 36.6785 12.8526L32.454 37.3132C32.3584 37.8666 32.0969 38.3733 31.7078 38.7588C31.3186 39.1443 30.8224 39.3884 30.2918 39.4553L29.9944 39.4737H9.99704C9.46267 39.474 8.94227 39.294 8.5122 38.9601C8.08212 38.6262 7.765 38.156 7.60736 37.6184L7.53737 37.3132L3.31293 12.8526C2.39879 12.5078 1.59983 11.8901 1.01364 11.0751C0.427454 10.2601 0.0794198 9.28295 0.0120488 8.26311C-0.0553222 7.24327 0.160886 6.22484 0.634266 5.33224C1.10765 4.43963 1.8177 3.71148 2.67771 3.23674C3.53771 2.76199 4.51043 2.5612 5.47704 2.65888C6.44366 2.75657 7.36233 3.14851 8.12084 3.78682C8.87936 4.42513 9.44487 5.28219 9.74831 6.2533C10.0518 7.22441 10.08 8.26754 9.82956 9.25526L14.0815 13.7342L16.0662 8.51579C15.4865 7.73944 15.126 6.80706 15.0259 5.8252C14.9257 4.84335 15.0899 3.85163 15.4998 2.96339C15.9096 2.07515 16.5486 1.32622 17.3436 0.802193C18.1387 0.278163 19.0577 0.000175858 19.9957 0ZM34.9937 42.1053H4.99771C4.33476 42.1053 3.69896 42.3825 3.23018 42.876C2.7614 43.3695 2.49804 44.0389 2.49804 44.7368C2.49804 46.1327 3.02476 47.4714 3.96231 48.4585C4.89987 49.4455 6.17147 50 7.49738 50H32.494C33.7197 50.0003 34.9028 49.5266 35.8185 48.6688C36.7342 47.8111 37.3187 46.629 37.4609 45.3474L37.4884 44.8895C37.5081 44.5317 37.4582 44.1735 37.3418 43.8367C37.2254 43.5 37.0448 43.1918 36.8113 42.9311C36.5777 42.6704 36.296 42.4627 35.9834 42.3207C35.6709 42.1787 35.3341 42.1054 34.9937 42.1053Z" fill="black"/>
</svg>
